<svg width="1280" height="720" viewBox="0 0 1280 720" fill="none" xmlns="http://www.w3.org/2000/svg">
  <defs>
    <marker id="arrowBlue" markerWidth="9" markerHeight="9" refX="8" refY="4.5" orient="auto" markerUnits="userSpaceOnUse">
      <path d="M1 1L8 4.5L1 8Z" fill="#2563EB"/>
    </marker>
    <marker id="arrowTeal" markerWidth="9" markerHeight="9" refX="8" refY="4.5" orient="auto" markerUnits="userSpaceOnUse">
      <path d="M1 1L8 4.5L1 8Z" fill="#0F766E"/>
    </marker>
    <style>
      .num {
        font-family: Arial, Helvetica, sans-serif;
        font-size: 56px;
        font-weight: 700;
        letter-spacing: 0;
      }
      .heading {
        font-family: Arial, Helvetica, sans-serif;
        font-size: 25px;
        font-weight: 700;
        fill: #111827;
      }
      .bar {
        font-family: Arial, Helvetica, sans-serif;
        font-size: 15px;
        font-weight: 700;
        fill: #FFFFFF;
      }
      .node {
        font-family: Arial, Helvetica, sans-serif;
        font-size: 18px;
        font-weight: 700;
        fill: #111827;
      }
      .note {
        font-family: Arial, Helvetica, sans-serif;
        font-size: 14px;
        font-weight: 400;
        fill: #4B5563;
      }
      .chip {
        font-family: Arial, Helvetica, sans-serif;
        font-size: 13px;
        font-weight: 700;
        fill: #374151;
      }
    </style>
  </defs>

  <rect width="1280" height="720" fill="#FFFFFF"/>

  <line x1="640" y1="82" x2="640" y2="632" stroke="#737373" stroke-width="2.2"/>
  <path d="M640 632L628 610H652L640 632Z" fill="#737373"/>

  <circle cx="640" cy="248" r="45" fill="#FFFFFF" stroke="#2563EB" stroke-width="2.5"/>
  <circle cx="640" cy="248" r="18" fill="#2563EB"/>
  <line x1="622" y1="248" x2="338" y2="248" stroke="#2563EB" stroke-width="2.5"/>
  <circle cx="338" cy="248" r="17" fill="#2563EB"/>

  <circle cx="640" cy="520" r="45" fill="#FFFFFF" stroke="#0F766E" stroke-width="2.5"/>
  <circle cx="640" cy="520" r="18" fill="#0F766E"/>
  <line x1="658" y1="520" x2="942" y2="520" stroke="#0F766E" stroke-width="2.5"/>
  <circle cx="942" cy="520" r="17" fill="#0F766E"/>

  <g>
    <text x="144" y="159" class="num" fill="#2563EB">01</text>
    <text x="244" y="136" class="heading">Монолит</text>
    <rect x="244" y="154" width="184" height="30" rx="0" fill="#2563EB"/>
    <text x="336" y="175" class="bar" text-anchor="middle">ЕДИНАЯ СИСТЕМА</text>
    <text x="244" y="211" class="note">UI, бизнес-логика, backend и база данных</text>
    <text x="244" y="233" class="note">связаны одним приложением и общим релизом.</text>

    <rect x="116" y="278" width="300" height="52" rx="7" fill="#F8FAFC" stroke="#93C5FD" stroke-width="2.5"/>
    <text x="266" y="311" class="node" text-anchor="middle">UI + бизнес-логика</text>
    <path d="M266 330V368" stroke="#2563EB" stroke-width="2.5" marker-end="url(#arrowBlue)"/>

    <rect x="116" y="382" width="300" height="52" rx="7" fill="#F8FAFC" stroke="#93C5FD" stroke-width="2.5"/>
    <text x="266" y="415" class="node" text-anchor="middle">Единый backend</text>
    <path d="M266 434V472" stroke="#2563EB" stroke-width="2.5" marker-end="url(#arrowBlue)"/>

    <rect x="116" y="486" width="300" height="52" rx="7" fill="#F8FAFC" stroke="#93C5FD" stroke-width="2.5"/>
    <text x="266" y="519" class="node" text-anchor="middle">Общая база данных</text>

    <rect x="110" y="584" width="112" height="34" rx="17" fill="#FFFFFF" stroke="#D1D5DB" stroke-width="1.8"/>
    <text x="166" y="606" class="chip" text-anchor="middle">единый релиз</text>
    <rect x="236" y="584" width="104" height="34" rx="17" fill="#FFFFFF" stroke="#D1D5DB" stroke-width="1.8"/>
    <text x="288" y="606" class="chip" text-anchor="middle">общая база</text>
    <rect x="354" y="584" width="136" height="34" rx="17" fill="#FFFFFF" stroke="#D1D5DB" stroke-width="1.8"/>
    <text x="422" y="606" class="chip" text-anchor="middle">масштаб целиком</text>
  </g>

  <g>
    <text x="966" y="411" class="num" fill="#0F766E">02</text>
    <text x="760" y="388" class="heading">Микросервисы</text>
    <rect x="760" y="406" width="228" height="30" rx="0" fill="#0F766E"/>
    <text x="874" y="427" class="bar" text-anchor="middle">НЕЗАВИСИМЫЕ СЕРВИСЫ</text>
    <text x="760" y="465" class="note">Каждый сервис развивается отдельно:</text>
    <text x="760" y="487" class="note">отдельный релиз, свой endpoint и SLA.</text>

    <rect x="760" y="100" width="128" height="48" rx="7" fill="#F8FAFC" stroke="#CBD5E1" stroke-width="2.3"/>
    <text x="824" y="130" class="node" text-anchor="middle">Auth</text>
    <rect x="910" y="100" width="128" height="48" rx="7" fill="#F8FAFC" stroke="#CBD5E1" stroke-width="2.3"/>
    <text x="974" y="130" class="node" text-anchor="middle">Orders</text>
    <rect x="760" y="190" width="128" height="48" rx="7" fill="#F8FAFC" stroke="#CBD5E1" stroke-width="2.3"/>
    <text x="824" y="220" class="node" text-anchor="middle">Billing</text>
    <rect x="910" y="190" width="128" height="48" rx="7" fill="#F8FAFC" stroke="#CBD5E1" stroke-width="2.3"/>
    <text x="974" y="220" class="node" text-anchor="middle">Notify</text>

    <rect x="826" y="294" width="180" height="52" rx="7" fill="#F0FDFA" stroke="#5EEAD4" stroke-width="2.5"/>
    <text x="916" y="327" class="node" text-anchor="middle">Данные / очереди</text>

    <path d="M824 148L882 285" stroke="#0F766E" stroke-width="2.5" marker-end="url(#arrowTeal)"/>
    <path d="M974 148L950 285" stroke="#0F766E" stroke-width="2.5" marker-end="url(#arrowTeal)"/>
    <path d="M824 238L892 285" stroke="#0F766E" stroke-width="2.5" marker-end="url(#arrowTeal)"/>
    <path d="M974 238L950 285" stroke="#0F766E" stroke-width="2.5" marker-end="url(#arrowTeal)"/>

    <rect x="754" y="596" width="130" height="34" rx="17" fill="#FFFFFF" stroke="#D1D5DB" stroke-width="1.8"/>
    <text x="819" y="618" class="chip" text-anchor="middle">отдельный релиз</text>
    <rect x="898" y="596" width="120" height="34" rx="17" fill="#FFFFFF" stroke="#D1D5DB" stroke-width="1.8"/>
    <text x="958" y="618" class="chip" text-anchor="middle">свой endpoint</text>
    <rect x="1032" y="596" width="98" height="34" rx="17" fill="#FFFFFF" stroke="#D1D5DB" stroke-width="1.8"/>
    <text x="1081" y="618" class="chip" text-anchor="middle">свой SLA</text>
  </g>
</svg>
