<svg width="980" height="520" viewBox="0 0 980 520" fill="none" xmlns="http://www.w3.org/2000/svg">
  <defs>
    <marker id="arrow" markerWidth="9" markerHeight="9" refX="7.5" refY="4.5" orient="auto" markerUnits="userSpaceOnUse">
      <path d="M1 1L8 4.5L1 8Z" fill="#475569"/>
    </marker>
    <style>
      .hub {
        font-family: Arial, Helvetica, sans-serif;
        font-size: 28px;
        font-weight: 700;
        fill: #FFFFFF;
      }
      .node {
        font-family: Arial, Helvetica, sans-serif;
        font-size: 17px;
        font-weight: 700;
        fill: #111827;
      }
      .line {
        stroke: #475569;
        stroke-width: 2;
        stroke-linecap: round;
        marker-end: url(#arrow);
      }
    </style>
  </defs>

  <rect width="980" height="520" fill="#FFFFFF"/>

  <rect x="352" y="208" width="276" height="104" rx="14" fill="#111827"/>
  <rect x="360" y="216" width="260" height="88" rx="10" fill="#1E293B"/>
  <text x="490" y="269" class="hub" text-anchor="middle">Dashboard</text>

  <g>
    <rect x="58" y="78" width="170" height="58" rx="10" fill="#F8FAFC" stroke="#CBD5E1" stroke-width="2"/>
    <text x="143" y="114" class="node" text-anchor="middle">Сервисы</text>

    <rect x="304" y="78" width="170" height="58" rx="10" fill="#F8FAFC" stroke="#CBD5E1" stroke-width="2"/>
    <text x="389" y="114" class="node" text-anchor="middle">Карта</text>

    <rect x="506" y="78" width="170" height="58" rx="10" fill="#F8FAFC" stroke="#CBD5E1" stroke-width="2"/>
    <text x="591" y="114" class="node" text-anchor="middle">Инциденты</text>

    <rect x="752" y="78" width="170" height="58" rx="10" fill="#F8FAFC" stroke="#CBD5E1" stroke-width="2"/>
    <text x="837" y="114" class="node" text-anchor="middle">Уведомления</text>

  </g>

  <g>
    <rect x="58" y="384" width="170" height="58" rx="10" fill="#F8FAFC" stroke="#CBD5E1" stroke-width="2"/>
    <text x="143" y="420" class="node" text-anchor="middle">Отчеты</text>

    <rect x="304" y="384" width="170" height="58" rx="10" fill="#F8FAFC" stroke="#CBD5E1" stroke-width="2"/>
    <text x="389" y="420" class="node" text-anchor="middle">Профиль</text>

    <rect x="486" y="384" width="210" height="58" rx="10" fill="#F8FAFC" stroke="#CBD5E1" stroke-width="2"/>
    <text x="591" y="420" class="node" text-anchor="middle">Администрирование</text>

    <rect x="752" y="384" width="170" height="58" rx="10" fill="#F8FAFC" stroke="#CBD5E1" stroke-width="2"/>
    <text x="837" y="420" class="node" text-anchor="middle">Аудит</text>

  </g>

  <path d="M398 208L166 142" class="line"/>
  <path d="M442 208L397 142" class="line"/>
  <path d="M538 208L583 142" class="line"/>
  <path d="M582 208L814 142" class="line"/>

  <path d="M398 312L166 378" class="line"/>
  <path d="M442 312L397 378" class="line"/>
  <path d="M538 312L583 378" class="line"/>
  <path d="M582 312L814 378" class="line"/>
</svg>
