<svg width="900" height="1260" viewBox="0 0 900 1260" fill="none" xmlns="http://www.w3.org/2000/svg">
  <defs>
    <marker id="arrowRed" markerWidth="10" markerHeight="10" refX="8.5" refY="5" orient="auto" markerUnits="userSpaceOnUse">
      <path d="M1 1L9 5L1 9Z" fill="#DC2626"/>
    </marker>
    <marker id="arrowOrange" markerWidth="10" markerHeight="10" refX="8.5" refY="5" orient="auto" markerUnits="userSpaceOnUse">
      <path d="M1 1L9 5L1 9Z" fill="#D97706"/>
    </marker>
    <marker id="arrowTeal" markerWidth="10" markerHeight="10" refX="8.5" refY="5" orient="auto" markerUnits="userSpaceOnUse">
      <path d="M1 1L9 5L1 9Z" fill="#0F766E"/>
    </marker>
    <marker id="arrowBlue" markerWidth="10" markerHeight="10" refX="8.5" refY="5" orient="auto" markerUnits="userSpaceOnUse">
      <path d="M1 1L9 5L1 9Z" fill="#2563EB"/>
    </marker>
    <style>
      .num {
        font-family: Arial, Helvetica, sans-serif;
        font-size: 58px;
        font-weight: 700;
        letter-spacing: 0;
      }
      .title {
        font-family: Arial, Helvetica, sans-serif;
        font-size: 25px;
        font-weight: 700;
        fill: #111827;
      }
      .bar {
        font-family: Arial, Helvetica, sans-serif;
        font-size: 15px;
        font-weight: 700;
        fill: #FFFFFF;
      }
      .text {
        font-family: Arial, Helvetica, sans-serif;
        font-size: 16px;
        font-weight: 400;
        fill: #4B5563;
      }
      .node {
        font-family: Arial, Helvetica, sans-serif;
        font-size: 16px;
        font-weight: 700;
        fill: #111827;
      }
      .box {
        fill: #F8FAFC;
        stroke: #CBD5E1;
        stroke-width: 2.3;
      }
    </style>
  </defs>

  <rect width="900" height="1260" fill="#FFFFFF"/>

  <line x1="450" y1="88" x2="450" y2="1104" stroke="#737373" stroke-width="2.4"/>
  <path d="M450 1130L436 1104H464L450 1130Z" fill="#737373"/>

  <g>
    <circle cx="450" cy="174" r="44" fill="#FFFFFF" stroke="#DC2626" stroke-width="2.5"/>
    <circle cx="450" cy="174" r="17" fill="#DC2626"/>
    <line x1="432" y1="174" x2="272" y2="174" stroke="#DC2626" stroke-width="2.5"/>
    <circle cx="272" cy="174" r="16" fill="#DC2626"/>

    <text x="114" y="158" class="num" fill="#DC2626">01</text>
    <text x="210" y="136" class="title">Инцидент</text>
    <rect x="210" y="158" width="130" height="30" fill="#DC2626"/>
    <text x="275" y="179" class="bar" text-anchor="middle">СОБЫТИЕ</text>
    <text x="210" y="219" class="text">Сервис, причина, критичность</text>
    <text x="210" y="242" class="text">и время возникновения.</text>

    <rect x="118" y="300" width="260" height="82" rx="9" fill="#FEF2F2" stroke="#FCA5A5" stroke-width="2.5"/>
    <rect x="118" y="300" width="7" height="82" rx="3.5" fill="#DC2626"/>
    <text x="148" y="333" class="node">Инцидент</text>
    <text x="148" y="361" class="text">сервис, причина, время</text>
  </g>

  <path d="M378 341H428" stroke="#DC2626" stroke-width="2.5" marker-end="url(#arrowRed)"/>

  <g>
    <circle cx="450" cy="454" r="44" fill="#FFFFFF" stroke="#D97706" stroke-width="2.5"/>
    <circle cx="450" cy="454" r="17" fill="#D97706"/>
    <line x1="468" y1="454" x2="628" y2="454" stroke="#D97706" stroke-width="2.5"/>
    <circle cx="628" cy="454" r="16" fill="#D97706"/>

    <text x="806" y="438" class="num" fill="#D97706">02</text>
    <text x="542" y="416" class="title">Правила</text>
    <rect x="542" y="438" width="136" height="30" fill="#D97706"/>
    <text x="610" y="459" class="bar" text-anchor="middle">МАРШРУТ</text>
    <text x="542" y="499" class="text">Уровень важности, тихие часы</text>
    <text x="542" y="522" class="text">и выбранные каналы.</text>

    <rect x="514" y="578" width="284" height="82" rx="9" fill="#FFFBEB" stroke="#FDE68A" stroke-width="2.5"/>
    <rect x="514" y="578" width="7" height="82" rx="3.5" fill="#D97706"/>
    <text x="544" y="611" class="node">Правила</text>
    <text x="544" y="639" class="text">критичность и каналы</text>
  </g>

  <path d="M450 498V568" stroke="#D97706" stroke-width="2.5" marker-end="url(#arrowOrange)"/>

  <g>
    <circle cx="450" cy="750" r="44" fill="#FFFFFF" stroke="#0F766E" stroke-width="2.5"/>
    <circle cx="450" cy="750" r="17" fill="#0F766E"/>
    <line x1="432" y1="750" x2="272" y2="750" stroke="#0F766E" stroke-width="2.5"/>
    <circle cx="272" cy="750" r="16" fill="#0F766E"/>

    <text x="114" y="734" class="num" fill="#0F766E">03</text>
    <text x="210" y="712" class="title">Дедупликация</text>
    <rect x="210" y="734" width="160" height="30" fill="#0F766E"/>
    <text x="290" y="755" class="bar" text-anchor="middle">REDIS-КЛЮЧ</text>
    <text x="210" y="795" class="text">Ограничение повторов</text>
    <text x="210" y="818" class="text">через Redis.</text>

    <rect x="118" y="876" width="260" height="82" rx="9" fill="#F0FDFA" stroke="#5EEAD4" stroke-width="2.5"/>
    <rect x="118" y="876" width="7" height="82" rx="3.5" fill="#0F766E"/>
    <text x="148" y="909" class="node">Дедупликация</text>
    <text x="148" y="937" class="text">защита от повторных сообщений</text>
  </g>

  <path d="M378 917H428" stroke="#0F766E" stroke-width="2.5" marker-end="url(#arrowTeal)"/>

  <g>
    <circle cx="450" cy="1036" r="44" fill="#FFFFFF" stroke="#2563EB" stroke-width="2.5"/>
    <circle cx="450" cy="1036" r="17" fill="#2563EB"/>
    <line x1="468" y1="1036" x2="628" y2="1036" stroke="#2563EB" stroke-width="2.5"/>
    <circle cx="628" cy="1036" r="16" fill="#2563EB"/>

    <text x="760" y="1020" class="num" fill="#2563EB">04</text>
    <text x="542" y="998" class="title">Каналы</text>
    <rect x="542" y="1020" width="142" height="30" fill="#2563EB"/>
    <text x="613" y="1041" class="bar" text-anchor="middle">ОТПРАВКА</text>
    <text x="542" y="1081" class="text">Уведомления доставляются</text>
    <text x="542" y="1104" class="text">по выбранным каналам.</text>

    <rect x="530" y="1140" width="120" height="50" rx="9" fill="#EFF6FF" stroke="#93C5FD" stroke-width="2.5"/>
    <text x="590" y="1171" class="node" text-anchor="middle">Email</text>
    <rect x="668" y="1140" width="120" height="50" rx="9" fill="#EFF6FF" stroke="#93C5FD" stroke-width="2.5"/>
    <text x="728" y="1171" class="node" text-anchor="middle">Telegram</text>
    <rect x="599" y="1204" width="120" height="50" rx="9" fill="#EFF6FF" stroke="#93C5FD" stroke-width="2.5"/>
    <text x="659" y="1235" class="node" text-anchor="middle">Web Push</text>
  </g>

  <path d="M450 794V992" stroke="#2563EB" stroke-width="2.5" marker-end="url(#arrowBlue)"/>
</svg>
